<svg width="231" height="201" viewBox="0 0 231 201" fill="none" xmlns="http://www.w3.org/2000/svg">
<path d="M24.3581 24.1104L115.243 33.1864L206.128 42.2625C200.869 94.9125 195.613 147.566 190.353 200.216C129.763 194.165 69.1735 188.114 8.58667 182.064C13.8427 129.414 19.0988 76.7604 24.3581 24.1104Z" fill="#F3F3F3"/>
<path d="M39.9002 0.00683594L122.801 21.6343L205.698 43.2585L166.311 194.239L0.516357 150.987C13.6422 100.66 26.7712 50.3336 39.9002 0.00683594Z" fill="#27DAE0"/>
<path d="M145.063 24.7197L157.512 115.104C137.723 123.484 118.112 131.647 96.6697 136.412C75.2593 141.17 51.9405 142.558 28.2962 143.838L15.4001 60.5005C36.8489 59.9708 58.639 59.1985 80.4707 53.1573C102.146 47.1545 123.751 35.9882 145.063 24.7197ZM147.284 17.5903C146.834 17.5903 146.384 17.6988 145.975 17.9158C123.394 29.8736 101.15 41.6368 78.9772 47.7736C56.8391 53.9009 34.6596 54.4498 12.0844 54.9955C11.2802 55.0147 10.5238 55.3785 10.01 55.9944C9.49305 56.6103 9.26966 57.4209 9.39093 58.2124L23.1614 147.192C23.372 148.561 24.5496 149.557 25.9218 149.557C25.9729 149.557 26.024 149.557 26.0718 149.554L26.1484 149.55L26.225 149.547C50.581 148.236 75.2178 146.905 97.8792 141.869C120.585 136.824 141.223 128.076 161.597 119.444L161.66 119.418C162.822 118.927 163.508 117.714 163.339 116.466L150.051 20.0061C149.926 19.103 149.368 18.3179 148.557 17.9031C148.158 17.6925 147.721 17.5903 147.284 17.5903Z" fill="#33F8FF"/>
<path d="M12.1131 56.1377C34.6692 55.5919 56.9891 55.0462 79.2835 48.8743C101.6 42.6991 123.955 30.869 146.511 18.9239C146.987 18.6718 147.555 18.6686 148.034 18.9144C148.512 19.1601 148.841 19.6228 148.914 20.1558L162.203 116.613C162.305 117.35 161.9 118.062 161.214 118.352C140.805 127 120.244 135.716 97.6335 140.742C75.0359 145.765 50.4374 147.086 26.0112 148.401C25.1655 148.446 24.4251 147.846 24.2943 147.01L10.527 58.0365C10.4536 57.5674 10.5877 57.0919 10.8908 56.7281C11.194 56.3642 11.6408 56.1504 12.1131 56.1377ZM12.1929 59.4311L13.779 57.5323L27.5494 146.512L25.8325 145.121C50.3161 143.799 74.6306 142.485 96.9155 137.535C119.188 132.585 139.478 123.991 159.928 115.33L158.938 117.069L145.653 20.6057L148.056 21.8376C125.573 33.7411 102.893 45.7596 80.1643 52.0496C57.4136 58.346 34.6883 58.8854 12.1929 59.4311Z" fill="#33F8FF"/>
<path d="M13.5047 56.8434L90.4629 81.0685L87.428 81.8759L143.375 21.3306C144.472 20.1403 146.33 20.0669 147.52 21.1679C148.71 22.2657 148.784 24.123 147.683 25.3134L91.7362 85.8554C90.9671 86.6884 89.7831 87.0043 88.7013 86.6628L11.7463 62.4377C10.2018 61.9526 9.34329 60.3059 9.82837 58.7613C10.3134 57.2136 11.9602 56.3551 13.5047 56.8434Z" fill="#33F8FF"/>
<path d="M146.253 24.7231C146.186 24.7231 146.122 24.7519 146.077 24.7997L90.6159 84.8185C90.3447 85.1121 89.9681 85.2716 89.582 85.2716C89.4415 85.2716 89.2979 85.2493 89.1607 85.2078L14.5386 61.7167C14.5131 61.7071 14.4907 61.7039 14.462 61.7039C14.4556 61.7039 14.4492 61.7039 14.4397 61.7039C14.3152 61.7135 14.2227 61.8188 14.2227 61.9432C14.2227 61.956 14.2227 61.9688 14.2258 61.9784L27.0868 145.073C27.1059 145.191 27.2049 145.274 27.3229 145.274C27.3293 145.274 27.3357 145.274 27.3421 145.274C51.3183 143.979 75.119 142.619 96.973 137.762C118.84 132.902 138.801 124.534 158.849 116.042C158.891 116.029 158.929 116.001 158.958 115.969C158.999 115.918 159.018 115.851 159.009 115.784L146.492 24.9274C146.48 24.8348 146.416 24.7583 146.326 24.7327C146.301 24.7263 146.279 24.7231 146.253 24.7231Z" fill="#FEFEFE"/>
<path d="M141.408 25.1123C141.37 25.1123 141.332 25.1219 141.297 25.141C120.994 35.8414 100.56 46.1557 80.1005 51.8203C59.0251 57.654 37.9657 58.5411 17.0627 59.0709C17.0532 59.0709 17.0404 59.0709 17.0308 59.0741C17.0149 59.0773 17.0021 59.0805 16.9893 59.0837C16.8872 59.1188 16.8202 59.2177 16.8266 59.3262C16.833 59.4315 16.9096 59.5145 17.0053 59.54L89.0106 82.2046C89.0329 82.211 89.0584 82.2142 89.084 82.2142C89.151 82.2142 89.2148 82.1887 89.2595 82.1376L141.587 25.508C141.651 25.4378 141.67 25.3357 141.632 25.2495C141.59 25.1698 141.504 25.1123 141.408 25.1123Z" fill="#FEFEFE"/>
<path d="M106.298 78.0594C106.011 78.286 105.714 78.5222 105.414 78.7615C105.411 78.7647 105.404 78.7679 105.401 78.7711L102.95 80.7912C102.998 80.5614 102.982 80.3189 102.902 80.0923C102.765 79.6966 102.519 79.4285 102.165 79.2913C103.598 78.8541 104.977 78.4424 106.298 78.0594ZM88.7871 83.0602C88.9339 83.1942 89.1222 83.29 89.3488 83.3474L86.9362 84.1739L88.7871 83.0602ZM110.328 69.9248C110.316 69.9248 110.306 69.9248 110.293 69.9248C109.76 69.9376 108.963 70.1482 107.906 70.5503C107.654 70.2439 107.278 70.0684 106.888 70.0684C106.776 70.0684 106.662 70.0844 106.55 70.1131C106.247 70.1929 105.88 70.3141 105.449 70.4737C105.404 70.4641 105.36 70.4546 105.315 70.445C105.146 70.4163 104.945 70.4003 104.715 70.4003C104.22 70.4003 103.585 70.4705 102.813 70.6077C101.217 70.8662 99.5386 71.2779 97.7738 71.8396C97.7643 71.8428 97.7547 71.846 97.7419 71.8492L84.1438 76.5467C84.1342 76.5499 84.1247 76.5531 84.1119 76.5563C80.5632 77.8807 78.0101 79.2721 76.4496 80.7305C76.0666 81.0816 75.9039 81.4901 75.9549 81.9592C76.0475 82.7698 76.5038 83.1783 77.324 83.1783C77.407 83.1783 77.4963 83.1751 77.5889 83.1655C77.6048 83.1655 77.624 83.1623 77.6399 83.1591C77.6942 83.1527 77.7484 83.1432 77.8027 83.1304L78.6069 82.9357C77.8952 83.6282 77.3495 84.2856 76.9698 84.9111C76.9059 85.0164 76.8581 85.1281 76.8262 85.2462C76.7209 85.626 76.7464 85.9834 76.8996 86.3153C77.0081 86.5515 77.1453 86.7366 77.3144 86.8738L77.2506 86.9121C77.1389 86.9791 77.04 87.0621 76.9506 87.1578C76.3251 87.8471 76.3475 88.4982 77.0176 89.1045C77.2825 89.3439 77.6048 89.4619 77.9878 89.4619C78.0708 89.4619 78.1569 89.4555 78.2463 89.446C78.2718 89.4428 78.2974 89.4396 78.3229 89.4364C79.8802 89.2002 81.6578 88.7503 83.646 88.0833C83.6492 88.0833 83.6523 88.0801 83.6555 88.0801L88.1138 86.5547C87.6415 87.2887 87.2649 88.0035 86.9841 88.7056C86.7128 89.3822 87.0415 90.1481 87.7181 90.4193C87.8776 90.4831 88.0436 90.5151 88.2063 90.5151C88.7297 90.5151 89.2244 90.2023 89.4286 89.6885C90.019 88.2205 91.12 86.6472 92.738 84.975L101.524 81.9688L97.9845 84.8856C97.9749 84.892 97.9653 84.9016 97.9589 84.9079C97.1324 85.6292 96.4845 86.3472 96.0154 87.0685C95.6197 87.678 95.792 88.495 96.4016 88.8907C96.6218 89.0343 96.8739 89.1045 97.1196 89.1045C97.5504 89.1045 97.9717 88.8939 98.227 88.5045C98.5589 87.9939 99.0408 87.4642 99.6727 86.9121L107.076 80.8071C110.708 77.8903 113.453 76.0202 115.313 75.1968C115.977 74.9032 116.277 74.1309 115.99 73.4671C115.773 72.9725 115.291 72.6757 114.78 72.6757C114.608 72.6757 114.432 72.7108 114.263 72.781C112.901 73.365 111.876 73.7544 111.193 73.9554C109.4 74.4341 107.475 74.9734 105.414 75.5734C107.128 74.5426 108.975 73.4863 110.957 72.4012C111.49 72.1108 111.755 71.4885 111.599 70.9013C111.445 70.3237 110.922 69.9248 110.328 69.9248Z" fill="#FEFEFE"/>
<path d="M69.0269 89.0018C69.3716 85.1212 69.9747 82.4916 70.8396 81.1193L70.8427 81.1129C72.6905 78.2025 74.7968 76.0739 77.1551 74.7271C77.1807 74.7144 77.2062 74.6984 77.2317 74.6856C78.154 74.2389 79.2039 73.9772 80.3815 73.8974C80.3975 73.8974 80.4134 73.8942 80.4326 73.8942C81.1219 73.8751 81.9995 73.9102 83.059 74.0027C83.2186 74.0155 83.3654 74.0378 83.4994 74.0697C84.1696 74.2229 84.6004 74.5771 84.7919 75.1388C84.8142 75.2026 84.8302 75.2665 84.843 75.3335C85.6663 79.8875 84.8589 82.916 82.4272 84.4223C81.808 84.8053 80.9975 84.6138 80.6145 83.9947C80.2315 83.3756 80.423 82.565 81.0421 82.182C82.4591 81.3044 82.8612 79.179 82.2516 75.8026L82.3027 75.9973C82.4272 76.3643 82.6346 76.5781 82.9218 76.6419C82.9058 76.6387 82.8771 76.6355 82.8356 76.6323C81.8751 76.5494 81.0996 76.5175 80.5124 76.5334L80.5634 76.5302C79.7273 76.5877 78.9997 76.7632 78.387 77.06L78.4636 77.0185C76.4818 78.1482 74.6851 79.9832 73.0703 82.5267L73.0735 82.5203C72.4352 83.5351 71.9629 85.7722 71.6565 89.2316C71.5927 89.956 70.9512 90.4921 70.2268 90.4283C69.496 90.3677 68.9599 89.7262 69.0269 89.0018Z" fill="#FEFEFE"/>
<path d="M68.0372 90.5305C68.7489 87.1222 69.4382 84.617 70.1084 83.0118L70.0477 83.1873C70.0509 83.1746 70.0541 83.1618 70.0573 83.149C70.2903 82.3065 71.4327 80.4588 73.4879 77.6089C73.4943 77.5994 73.5007 77.593 73.5071 77.5834C74.04 76.8813 75.1187 76.0835 76.7431 75.1836L76.0665 76.4441C76.0218 75.8888 76.2612 75.4548 76.7877 75.1389C77.0941 74.9538 77.9972 74.5389 79.494 73.8879C79.4971 73.8847 79.5035 73.8847 79.5067 73.8815C80.445 73.4858 81.2747 73.1954 82.0023 73.0007C82.2863 72.9241 82.5895 72.9465 82.8576 73.0645C83.6554 73.406 83.9937 74.0538 83.8724 75.0017C83.8501 75.1899 83.8022 75.3878 83.7352 75.6016C83.5118 76.2941 82.7682 76.6739 82.0757 76.4505C81.3832 76.2271 81.0034 75.4835 81.2268 74.791C81.246 74.7336 81.2556 74.6953 81.2587 74.6698C81.2109 75.0336 81.3992 75.308 81.8172 75.4867L82.6725 75.5506C82.0629 75.7101 81.3481 75.9654 80.5247 76.3101L80.5375 76.3037C79.1429 76.9069 78.3451 77.2739 78.1345 77.3983C78.5461 77.1526 78.7312 76.7633 78.6866 76.2271C78.728 76.7441 78.4632 77.2356 78.01 77.4877C76.7111 78.2057 75.9101 78.7674 75.6006 79.1695L75.6197 79.144C73.7496 81.7385 72.7412 83.3054 72.5912 83.8447C72.5752 83.9054 72.5561 83.9628 72.5305 84.0203C71.9242 85.4723 71.2859 87.8211 70.6062 91.0635C70.4562 91.7751 69.7605 92.2315 69.0457 92.0847C68.3468 91.9411 67.8872 91.2422 68.0372 90.5305Z" fill="#FEFEFE"/>
<path d="M66.8026 91.4977L68.5291 84.8949C68.5323 84.8821 68.5355 84.8726 68.5386 84.8598C68.7939 83.979 69.0365 83.261 69.2599 82.712L69.228 82.795C69.8311 80.9696 70.8874 79.2271 72.3905 77.5709L72.1001 78.091C72.1544 77.8996 72.2469 77.7081 72.3714 77.5198C72.9937 76.5752 75.2499 74.9923 79.1401 72.768L79.0986 72.7935C80.3975 71.9861 81.9421 71.2968 83.7324 70.7319L83.6845 70.7479C83.6941 70.7447 83.7037 70.7415 83.7165 70.7383C84.0547 70.6234 84.7887 70.4734 85.9184 70.2883C86.6365 70.1734 87.313 70.6585 87.4311 71.3766C87.546 72.0946 87.0609 72.7711 86.3429 72.8892C85.36 73.0488 84.7728 73.1605 84.5749 73.2275C84.559 73.2339 84.543 73.2371 84.527 73.2435C82.9505 73.7413 81.6038 74.3381 80.4932 75.0274C80.4805 75.037 80.4645 75.0434 80.4518 75.0529C76.9254 77.0666 74.9691 78.3719 74.5766 78.9655C74.5989 78.9304 74.6181 78.8825 74.6372 78.8187C74.583 79.0133 74.4808 79.192 74.3468 79.3388C73.0926 80.7207 72.2214 82.1472 71.7363 83.6184C71.7267 83.6471 71.7172 83.6758 71.7044 83.7013C71.5129 84.1673 71.3055 84.796 71.0725 85.5906L71.0821 85.5555L69.3524 92.1615C69.1673 92.8668 68.4493 93.288 67.744 93.1029C67.0419 92.921 66.6207 92.1998 66.8026 91.4977Z" fill="#FEFEFE"/>
<path d="M65.644 90.8818C66.3844 90.218 67.0163 89.4298 67.5396 88.5138L67.5173 88.5553C67.6641 88.2777 67.8045 87.9522 67.9449 87.582L67.9034 87.7096C68.2449 86.4427 69.1289 84.0811 70.5586 80.6313C70.565 80.6186 70.5682 80.609 70.5746 80.5962C71.232 79.1346 72.3266 77.3635 73.8584 75.2859L73.8488 75.2955C75.8817 72.4744 78.7666 70.0969 82.4972 68.1629C83.1419 67.8279 83.9397 68.08 84.2748 68.7246C84.6099 69.3693 84.3578 70.1671 83.7131 70.5022C80.3527 72.2446 77.7773 74.3572 75.987 76.8401C75.9838 76.8433 75.9806 76.8465 75.9806 76.8497C74.5605 78.7772 73.5616 80.3856 72.9808 81.6749L72.9968 81.6398C71.6117 84.9843 70.7628 87.2341 70.4501 88.3926C70.4373 88.4373 70.4246 88.4787 70.4086 88.5202C70.2299 88.9862 70.0448 89.4042 69.8533 89.7744C69.8469 89.7904 69.8374 89.8031 69.831 89.8159C69.1672 90.9807 68.3566 91.9892 67.4024 92.8412C66.8599 93.3263 66.027 93.2785 65.5419 92.7359C65.0536 92.1998 65.1015 91.3669 65.644 90.8818Z" fill="#FEFEFE"/>
<path d="M66.7291 87.6586C66.3526 87.5788 66.0526 87.6363 65.8292 87.8373C66.027 87.6586 66.4132 87.1001 66.9844 86.1587L66.9398 86.2417C68.8992 82.4377 70.5683 79.0102 71.9533 75.9625C71.9565 75.9561 71.9597 75.9498 71.9629 75.9434C72.4128 74.9956 73.0639 73.8914 73.9223 72.634C73.951 72.5925 73.9798 72.5542 74.0117 72.5191C75.2978 71.0192 76.5551 69.9246 77.7774 69.2353L77.7455 69.2544L79.9698 67.9141L79.8198 68.0194C79.9475 67.9173 80.0975 67.8279 80.2794 67.7545C80.6336 67.6077 81.3134 67.4386 82.3154 67.2503C83.0303 67.1162 83.7196 67.5886 83.8536 68.3034C83.9877 69.0183 83.5154 69.7076 82.8005 69.8416C81.9772 69.9948 81.4761 70.1097 81.291 70.1863C81.3485 70.1639 81.4091 70.1224 81.4825 70.065C81.4346 70.1033 81.3836 70.1384 81.3325 70.1703L79.105 71.5107C79.0954 71.517 79.0826 71.5234 79.0731 71.5298C78.1189 72.0691 77.0977 72.9691 76.0126 74.2328L76.102 74.1179C75.3233 75.2636 74.7361 76.2465 74.3468 77.0731L74.3563 77.0539C72.9553 80.1399 71.264 83.6057 69.2854 87.4512C69.2726 87.4799 69.2566 87.5054 69.2407 87.5342C68.5322 88.699 67.9833 89.4553 67.594 89.8064C67.1472 90.2053 66.6749 90.3521 66.1738 90.2436C65.4622 90.0904 65.009 89.3883 65.1654 88.6766C65.3154 87.9586 66.0175 87.5054 66.7291 87.6586Z" fill="#FEFEFE"/>
<path d="M64.4026 87.1545C64.393 87.1673 64.3835 87.1768 64.3771 87.1832C64.6579 86.8258 65.2579 85.4695 66.1738 83.1143C66.2185 82.9994 66.2791 82.8909 66.3557 82.792C67.6354 81.1134 68.5385 79.8241 69.0619 78.9209C69.0842 78.8795 69.1098 78.8412 69.1385 78.8029C69.4736 78.3433 69.8278 77.9093 70.1948 77.4976C70.198 77.4944 70.198 77.4912 70.2012 77.4912C72.4957 74.9669 74.8318 73.4798 77.2125 73.033C77.9273 72.899 78.6167 73.3713 78.7507 74.0861C78.8847 74.801 78.4124 75.4903 77.6976 75.6243C75.8977 75.9626 74.0467 77.1753 72.1511 79.2624L72.1575 79.256C71.8479 79.6039 71.5479 79.9709 71.2639 80.3602L71.3405 80.2421C70.7629 81.2378 69.7991 82.6197 68.4492 84.3876L68.6311 84.0653C67.6194 86.6694 66.8918 88.2523 66.445 88.814C66.394 88.8778 66.3461 88.9352 66.2951 88.9863C65.7876 89.5097 64.9547 89.5224 64.4313 89.015C63.908 88.5108 63.8952 87.6747 64.4026 87.1545Z" fill="#FEFEFE"/>
<path d="M89.8625 67.9201C91.0209 67.6169 92.8559 67.719 95.3675 68.2265L95.3419 68.2201C98.2077 68.7403 100.407 69.3466 101.938 70.0423C103.314 70.6678 105.567 72.3943 108.694 75.2186C108.723 75.2441 108.752 75.2728 108.777 75.2984L113.382 80.2513C113.877 80.7842 113.848 81.6171 113.315 82.115C112.782 82.6096 111.949 82.5809 111.452 82.048L106.847 77.0951L106.93 77.1749C104.003 74.5325 101.977 72.9528 100.847 72.4422C99.5161 71.839 97.5216 71.2933 94.8696 70.8146C94.86 70.8146 94.8537 70.8114 94.8441 70.8114C92.7346 70.3838 91.2954 70.2721 90.5295 70.4731C89.8242 70.6582 89.1061 70.237 88.921 69.5317C88.7359 68.8232 89.1572 68.102 89.8625 67.9201Z" fill="#FEFEFE"/>
<path d="M91.9306 66.3823C98.1122 67.7577 102.28 69.0821 104.431 70.3554L104.425 70.3523C105.194 70.8022 105.822 71.2586 106.307 71.7213C106.327 71.7405 106.343 71.7564 106.362 71.7756C109.796 75.4711 112.39 77.9763 114.142 79.2943C114.723 79.7315 114.841 80.558 114.404 81.1388C113.967 81.7197 113.14 81.8377 112.559 81.4005C110.68 79.99 107.97 77.3795 104.431 73.5691L104.485 73.6233C104.15 73.3042 103.687 72.9691 103.097 72.6245C103.094 72.6213 103.091 72.6213 103.091 72.6213C101.179 71.4883 97.2697 70.2661 91.3626 68.9513C90.6509 68.7949 90.2042 68.0896 90.3605 67.378C90.5169 66.6727 91.219 66.2259 91.9306 66.3823Z" fill="#FEFEFE"/>
<path d="M91.8093 86.5319C91.9657 86.5319 92.1221 86.5382 92.2752 86.5478C92.3103 86.5478 92.3486 86.5478 92.3837 86.5478C92.738 86.5478 93.1241 86.5733 93.539 86.6244L92.2752 101.856C91.487 102.326 90.7721 102.664 90.1275 102.871C89.4829 103.079 88.768 103.226 87.9734 103.312C87.6925 103.34 87.4181 103.356 87.1596 103.356C85.9852 103.356 85.0374 103.05 84.3161 102.44C83.4673 101.691 82.9503 100.436 82.762 98.6748C82.596 97.1206 82.6854 95.643 83.0237 94.242C83.3651 92.8442 83.914 91.5964 84.6704 90.5018C85.3948 89.4104 86.3107 88.5105 87.4245 87.7988C88.5063 87.1254 89.7222 86.717 91.0689 86.5733C91.321 86.5446 91.5668 86.5319 91.8093 86.5319ZM94.1549 71.2998C93.1879 71.2998 92.2018 71.3541 91.1934 71.4594C86.3554 71.9732 82.2609 73.2305 78.9069 75.2283C75.5879 77.2229 72.9264 79.6387 70.9223 82.4725C68.9118 85.2713 67.5235 88.3222 66.7576 91.6188C66.0204 94.8771 65.8162 98.062 66.1481 101.174C66.4927 104.422 67.3129 107.183 68.6022 109.458C69.8915 111.734 71.519 113.569 73.4881 114.97C75.4507 116.332 77.6814 117.267 80.1802 117.771C81.7535 118.097 83.3779 118.257 85.0469 118.257C85.9916 118.257 86.949 118.205 87.9223 118.1C92.1029 117.657 95.3931 116.712 97.793 115.269C97.576 114.558 97.3334 113.904 97.059 113.304C96.7877 112.739 96.526 112.225 96.2675 111.762C95.1059 112.34 93.7975 112.847 92.3391 113.281C90.8774 113.68 89.3009 113.971 87.6096 114.149C86.8436 114.232 86.0937 114.271 85.3565 114.271C84.064 114.271 82.813 114.146 81.6067 113.894C79.7111 113.502 78.0261 112.755 76.5453 111.654C75.0678 110.588 73.8295 109.129 72.8307 107.278C71.8637 105.424 71.2382 103.149 70.951 100.452C70.6446 97.5833 70.8521 94.7494 71.5669 91.9475C72.2818 89.1455 73.4945 86.5861 75.2082 84.2724C76.8836 81.9619 79.0537 80.0184 81.7184 78.4419C84.3863 76.9005 87.517 75.9368 91.1104 75.557C92.0487 75.4581 92.9486 75.407 93.8103 75.407C97.276 75.407 100.142 76.2112 102.411 77.8164C105.245 79.8206 106.895 83.0182 107.364 87.4095C107.53 88.9636 107.491 90.5752 107.249 92.2443C107.038 93.875 106.607 95.4069 105.953 96.8366C105.331 98.2312 104.514 99.4183 103.502 100.401C102.484 101.349 101.249 101.898 99.7971 102.054C99.5482 102.08 99.2929 102.093 99.0312 102.093C98.7855 102.093 98.5334 102.08 98.2749 102.058C97.7834 102.038 97.3494 101.911 96.976 101.671L98.7408 82.7693C97.4898 82.5172 96.2165 82.3576 94.9144 82.2842C94.4868 82.2587 94.0496 82.2459 93.6092 82.2459C92.7444 82.2459 91.8572 82.2938 90.9413 82.3928C88.902 82.6098 87.0096 83.2289 85.2671 84.2533C83.5534 85.2394 82.1014 86.5287 80.9078 88.1243C79.7111 89.6849 78.8207 91.5103 78.2399 93.5974C77.6559 95.6526 77.4868 97.8546 77.7357 100.203C78.0069 102.76 78.9643 104.703 80.611 106.031C81.9514 107.113 83.5758 107.655 85.481 107.655C85.8575 107.655 86.2469 107.633 86.649 107.591C88.1361 107.435 89.4829 107.116 90.6892 106.637C91.8955 106.158 92.9709 105.574 93.9092 104.879C95.0804 105.603 96.5324 105.964 98.2685 105.964C98.7504 105.964 99.2546 105.935 99.7812 105.881C101.958 105.648 103.856 104.923 105.474 103.704C107.096 102.517 108.439 101.03 109.508 99.2396C110.542 97.4525 111.276 95.4866 111.713 93.3421C112.116 91.2039 112.202 89.0626 111.975 86.918C111.662 83.982 110.887 81.4577 109.652 79.3546C108.452 77.2803 106.911 75.6081 105.031 74.3411C103.183 73.0678 101.064 72.1934 98.6706 71.7147C97.2122 71.437 95.7091 71.2998 94.1549 71.2998Z" fill="#33F8FF"/>
<mask id="mask0_26_9041" style="mask-type:luminance" maskUnits="userSpaceOnUse" x="0" y="0" width="231" height="201">
<path d="M230.5 0H0.5V200.276H230.5V0Z" fill="white"/>
</mask>
<g mask="url(#mask0_26_9041)">
<path d="M171.847 53.9776L228.327 70.199C229.201 70.4511 229.705 71.3606 229.453 72.235C229.201 73.1095 228.288 73.6137 227.417 73.3616L170.938 57.1402C170.063 56.8881 169.559 55.9786 169.811 55.1042C170.06 54.2329 170.973 53.7287 171.847 53.9776Z" fill="#33F8FF"/>
</g>
<mask id="mask1_26_9041" style="mask-type:luminance" maskUnits="userSpaceOnUse" x="0" y="0" width="231" height="201">
<path d="M230.5 0H0.5V200.276H230.5V0Z" fill="white"/>
</mask>
<g mask="url(#mask1_26_9041)">
<path d="M172.383 74.0862L229.252 89.9884C230.127 90.2341 230.64 91.1405 230.395 92.0181C230.149 92.8925 229.243 93.4063 228.365 93.1606L171.496 77.2615C170.622 77.0158 170.108 76.1095 170.354 75.2319C170.599 74.3543 171.509 73.8436 172.383 74.0862Z" fill="#33F8FF"/>
</g>
<path d="M175.268 94.1532L221.45 106.095C222.33 106.322 222.86 107.222 222.63 108.102C222.404 108.983 221.504 109.513 220.623 109.283L174.442 97.3413C173.561 97.1147 173.031 96.2147 173.261 95.3339C173.491 94.4531 174.387 93.9266 175.268 94.1532Z" fill="#33F8FF"/>
</svg>
