<svg width="227" height="36" viewBox="0 0 227 36" fill="none" xmlns="http://www.w3.org/2000/svg">
<path d="M0.864502 20.196V8.1H6.63722V18.936C6.63722 20.088 6.86572 20.976 7.32273 21.6C7.77973 22.2 8.42916 22.5 9.27102 22.5C9.80018 22.5 10.3053 22.416 10.7864 22.248C11.2674 22.056 11.7364 21.756 12.1935 21.348C12.6505 20.94 13.0594 20.412 13.4202 19.764V8.1H19.1929V20.592C19.1929 21.168 19.2771 21.576 19.4454 21.816C19.6379 22.032 19.9626 22.164 20.4196 22.212V27C19.8904 27.096 19.4214 27.168 19.0125 27.216C18.6276 27.264 18.2789 27.288 17.9662 27.288C16.9559 27.288 16.1502 27.084 15.5488 26.676C14.9475 26.244 14.5747 25.644 14.4304 24.876L14.3221 23.724C13.4562 24.972 12.3739 25.896 11.075 26.496C9.80018 27.072 8.36903 27.36 6.78153 27.36C4.8573 27.36 3.39006 26.748 2.37984 25.524C1.36961 24.3 0.864502 22.524 0.864502 20.196ZM41.9213 27H36.1486V16.38C36.1486 15.156 35.896 14.256 35.3909 13.68C34.9098 13.104 34.2604 12.816 33.4426 12.816C33.0097 12.816 32.5166 12.96 31.9633 13.248C31.4342 13.512 30.9411 13.896 30.4841 14.4C30.0271 14.904 29.6783 15.492 29.4378 16.164V27H23.6651V0.720001H29.4378V11.268C30.1353 10.14 31.0493 9.276 32.1798 8.676C33.3344 8.052 34.5971 7.74 35.9682 7.74C37.267 7.74 38.3013 7.956 39.071 8.388C39.8648 8.82 40.4661 9.396 40.875 10.116C41.2839 10.812 41.5605 11.58 41.7048 12.42C41.8491 13.26 41.9213 14.088 41.9213 14.904V27ZM52.9004 27.36C51.6978 27.36 50.5913 27.108 49.5811 26.604C48.5949 26.1 47.729 25.404 46.9834 24.516C46.2618 23.628 45.6965 22.584 45.2876 21.384C44.9028 20.184 44.7104 18.888 44.7104 17.496C44.7104 16.104 44.9269 14.82 45.3598 13.644C45.7928 12.468 46.4061 11.436 47.1999 10.548C48.0177 9.66 48.9557 8.976 50.0141 8.496C51.0964 7.992 52.263 7.74 53.5138 7.74C54.9329 7.74 56.1716 8.052 57.2299 8.676C58.2883 9.3 59.1662 10.14 59.8638 11.196V8.1H64.8788V34.704H59.1061V23.94C57.8313 26.22 55.7627 27.36 52.9004 27.36ZM55.1013 22.5C55.6545 22.5 56.1716 22.392 56.6527 22.176C57.1578 21.96 57.6148 21.66 58.0237 21.276C58.4326 20.892 58.7934 20.448 59.1061 19.944V15.948C58.9618 15.492 58.7453 15.06 58.4567 14.652C58.168 14.244 57.8313 13.884 57.4464 13.572C57.0616 13.26 56.6527 13.032 56.2197 12.888C55.7868 12.72 55.3538 12.636 54.9209 12.636C54.2714 12.636 53.6821 12.768 53.153 13.032C52.6479 13.296 52.2029 13.668 51.818 14.148C51.4332 14.604 51.1325 15.132 50.916 15.732C50.6996 16.332 50.5913 16.968 50.5913 17.64C50.5913 18.576 50.7838 19.404 51.1686 20.124C51.5534 20.844 52.0826 21.42 52.7561 21.852C53.4296 22.284 54.2113 22.5 55.1013 22.5Z" fill="url(#paint0_linear_3_8619)"/>
<path d="M67.6443 21.348C67.6443 20.1 67.9931 19.008 68.6906 18.072C69.3881 17.136 70.3502 16.404 71.577 15.876C72.8037 15.324 74.2108 15.048 75.7982 15.048C76.5679 15.048 77.3256 15.12 78.0713 15.264C78.8169 15.384 79.4663 15.564 80.0195 15.804V14.976C80.0195 13.944 79.7069 13.152 79.0815 12.6C78.4561 12.048 77.506 11.772 76.2312 11.772C75.1729 11.772 74.1747 11.952 73.2366 12.312C72.3226 12.672 71.3484 13.188 70.3142 13.86L68.5824 10.188C69.8331 9.372 71.132 8.76 72.4789 8.352C73.85 7.944 75.2931 7.74 76.8085 7.74C79.6467 7.74 81.8476 8.424 83.411 9.792C84.9985 11.136 85.7923 13.092 85.7923 15.66V20.592C85.7923 21.168 85.8764 21.576 86.0448 21.816C86.2372 22.032 86.562 22.164 87.019 22.212V27C86.5379 27.096 86.0809 27.168 85.6479 27.216C85.239 27.264 84.8782 27.288 84.5656 27.288C83.4832 27.288 82.6533 27.072 82.0761 26.64C81.5229 26.208 81.1741 25.62 81.0298 24.876L80.9215 24.048C80.0797 25.128 79.0695 25.956 77.8909 26.532C76.7363 27.084 75.5216 27.36 74.2468 27.36C72.9961 27.36 71.8656 27.096 70.8554 26.568C69.8692 26.04 69.0875 25.32 68.5102 24.408C67.9329 23.496 67.6443 22.476 67.6443 21.348ZM79.1176 22.068C79.3821 21.852 79.5986 21.612 79.767 21.348C79.9354 21.084 80.0195 20.832 80.0195 20.592V18.9C79.5385 18.708 78.9973 18.564 78.396 18.468C77.8187 18.348 77.2775 18.288 76.7724 18.288C75.7141 18.288 74.8361 18.528 74.1386 19.008C73.4411 19.464 73.0923 20.076 73.0923 20.844C73.0923 21.276 73.2126 21.672 73.4531 22.032C73.6936 22.392 74.0183 22.68 74.4272 22.896C74.8602 23.112 75.3653 23.22 75.9426 23.22C76.5198 23.22 77.0971 23.112 77.6744 22.896C78.2517 22.68 78.7327 22.404 79.1176 22.068ZM99.0312 27.36C97.4196 27.36 95.9885 27.096 94.7377 26.568C93.487 26.04 92.4166 25.32 91.5266 24.408C90.6607 23.496 89.9993 22.452 89.5423 21.276C89.0853 20.1 88.8568 18.852 88.8568 17.532C88.8568 15.804 89.2536 14.196 90.0474 12.708C90.8652 11.22 92.0318 10.02 93.5471 9.108C95.0624 8.196 96.8905 7.74 99.0312 7.74C101.196 7.74 103.024 8.208 104.515 9.144C106.031 10.056 107.161 11.256 107.907 12.744L102.278 14.436C101.918 13.86 101.448 13.416 100.871 13.104C100.318 12.792 99.6926 12.636 98.9951 12.636C98.2013 12.636 97.4798 12.84 96.8303 13.248C96.2049 13.656 95.6998 14.22 95.315 14.94C94.9542 15.66 94.7738 16.524 94.7738 17.532C94.7738 18.516 94.9662 19.38 95.3511 20.124C95.7359 20.868 96.241 21.456 96.8664 21.888C97.4918 22.296 98.2013 22.5 98.9951 22.5C99.4762 22.5 99.9211 22.428 100.33 22.284C100.763 22.116 101.148 21.888 101.485 21.6C101.845 21.312 102.122 20.988 102.314 20.628L107.943 22.356C107.486 23.316 106.824 24.18 105.958 24.948C105.117 25.692 104.118 26.28 102.964 26.712C101.809 27.144 100.498 27.36 99.0312 27.36ZM119.432 27.36C117.82 27.36 116.389 27.096 115.138 26.568C113.887 26.04 112.817 25.32 111.927 24.408C111.061 23.496 110.4 22.452 109.943 21.276C109.486 20.1 109.257 18.852 109.257 17.532C109.257 15.804 109.654 14.196 110.448 12.708C111.266 11.22 112.432 10.02 113.947 9.108C115.463 8.196 117.291 7.74 119.432 7.74C121.596 7.74 123.424 8.208 124.916 9.144C126.431 10.056 127.561 11.256 128.307 12.744L122.679 14.436C122.318 13.86 121.849 13.416 121.272 13.104C120.718 12.792 120.093 12.636 119.395 12.636C118.602 12.636 117.88 12.84 117.231 13.248C116.605 13.656 116.1 14.22 115.715 14.94C115.355 15.66 115.174 16.524 115.174 17.532C115.174 18.516 115.367 19.38 115.751 20.124C116.136 20.868 116.641 21.456 117.267 21.888C117.892 22.296 118.602 22.5 119.395 22.5C119.877 22.5 120.322 22.428 120.73 22.284C121.163 22.116 121.548 21.888 121.885 21.6C122.246 21.312 122.522 20.988 122.715 20.628L128.343 22.356C127.886 23.316 127.225 24.18 126.359 24.948C125.517 25.692 124.519 26.28 123.364 26.712C122.21 27.144 120.899 27.36 119.432 27.36ZM139.796 27.36C138.184 27.36 136.741 27.096 135.466 26.568C134.216 26.04 133.157 25.32 132.291 24.408C131.425 23.496 130.764 22.452 130.307 21.276C129.874 20.1 129.658 18.864 129.658 17.568C129.658 16.248 129.874 15 130.307 13.824C130.764 12.648 131.425 11.604 132.291 10.692C133.157 9.78 134.216 9.06 135.466 8.532C136.741 8.004 138.184 7.74 139.796 7.74C141.407 7.74 142.839 8.004 144.089 8.532C145.34 9.06 146.398 9.78 147.264 10.692C148.13 11.604 148.792 12.648 149.249 13.824C149.706 15 149.934 16.248 149.934 17.568C149.934 18.864 149.706 20.1 149.249 21.276C148.792 22.452 148.13 23.496 147.264 24.408C146.398 25.32 145.34 26.04 144.089 26.568C142.839 27.096 141.407 27.36 139.796 27.36ZM135.575 17.568C135.575 18.552 135.755 19.416 136.116 20.16C136.501 20.904 137.006 21.48 137.631 21.888C138.256 22.296 138.978 22.5 139.796 22.5C140.59 22.5 141.299 22.296 141.925 21.888C142.574 21.456 143.079 20.868 143.44 20.124C143.801 19.38 143.981 18.528 143.981 17.568C143.981 16.584 143.801 15.72 143.44 14.976C143.079 14.232 142.574 13.656 141.925 13.248C141.299 12.84 140.59 12.636 139.796 12.636C138.978 12.636 138.256 12.84 137.631 13.248C137.006 13.656 136.501 14.232 136.116 14.976C135.755 15.72 135.575 16.584 135.575 17.568ZM152.616 20.196V8.1H158.389V18.936C158.389 20.088 158.617 20.976 159.074 21.6C159.531 22.2 160.181 22.5 161.023 22.5C161.552 22.5 162.057 22.416 162.538 22.248C163.019 22.056 163.488 21.756 163.945 21.348C164.402 20.94 164.811 20.412 165.172 19.764V8.1H170.945V20.592C170.945 21.168 171.029 21.576 171.197 21.816C171.39 22.032 171.714 22.164 172.171 22.212V27C171.642 27.096 171.173 27.168 170.764 27.216C170.379 27.264 170.031 27.288 169.718 27.288C168.708 27.288 167.902 27.084 167.301 26.676C166.699 26.244 166.326 25.644 166.182 24.876L166.074 23.724C165.208 24.972 164.126 25.896 162.827 26.496C161.552 27.072 160.121 27.36 158.533 27.36C156.609 27.36 155.142 26.748 154.132 25.524C153.121 24.3 152.616 22.524 152.616 20.196ZM193.673 27H187.9V16.38C187.9 15.132 187.66 14.232 187.179 13.68C186.722 13.104 186.109 12.816 185.339 12.816C184.81 12.816 184.268 12.96 183.715 13.248C183.162 13.536 182.657 13.932 182.2 14.436C181.767 14.94 181.43 15.516 181.19 16.164V27H175.417V8.1H180.612V11.268C181.093 10.524 181.695 9.888 182.416 9.36C183.138 8.832 183.968 8.436 184.906 8.172C185.844 7.884 186.866 7.74 187.973 7.74C189.199 7.74 190.186 7.968 190.931 8.424C191.701 8.856 192.278 9.432 192.663 10.152C193.072 10.872 193.336 11.652 193.457 12.492C193.601 13.308 193.673 14.112 193.673 14.904V27ZM209.741 25.992C209.211 26.208 208.622 26.424 207.973 26.64C207.347 26.856 206.686 27.024 205.988 27.144C205.291 27.288 204.605 27.36 203.932 27.36C202.97 27.36 202.08 27.204 201.262 26.892C200.468 26.556 199.831 26.016 199.35 25.272C198.893 24.528 198.664 23.544 198.664 22.32V12.456H196.247V8.1H198.664V2.088H204.437V8.1H208.297V12.456H204.437V20.34C204.437 20.964 204.593 21.42 204.906 21.708C205.219 21.972 205.615 22.104 206.097 22.104C206.505 22.104 206.938 22.032 207.395 21.888C207.876 21.744 208.285 21.588 208.622 21.42L209.741 25.992ZM219.242 27.36C217.63 27.36 216.055 27.096 214.515 26.568C212.976 26.04 211.677 25.26 210.619 24.228L212.603 20.592C213.757 21.432 214.876 22.068 215.958 22.5C217.065 22.932 218.099 23.148 219.061 23.148C219.807 23.148 220.384 23.028 220.793 22.788C221.202 22.548 221.406 22.176 221.406 21.672C221.406 21.312 221.286 21.036 221.045 20.844C220.805 20.628 220.432 20.436 219.927 20.268C219.446 20.1 218.845 19.92 218.123 19.728C216.68 19.248 215.477 18.78 214.515 18.324C213.553 17.868 212.831 17.316 212.35 16.668C211.869 15.996 211.629 15.132 211.629 14.076C211.629 12.804 211.941 11.7 212.567 10.764C213.216 9.804 214.13 9.06 215.309 8.532C216.487 8.004 217.895 7.74 219.53 7.74C220.829 7.74 222.092 7.944 223.318 8.352C224.569 8.76 225.736 9.444 226.818 10.404L224.581 14.004C223.499 13.26 222.537 12.72 221.695 12.384C220.853 12.048 220.035 11.88 219.242 11.88C218.833 11.88 218.46 11.928 218.123 12.024C217.786 12.12 217.51 12.288 217.293 12.528C217.101 12.744 217.005 13.032 217.005 13.392C217.005 13.752 217.101 14.04 217.293 14.256C217.51 14.472 217.834 14.664 218.267 14.832C218.724 14.976 219.29 15.156 219.963 15.372C221.527 15.828 222.825 16.296 223.86 16.776C224.894 17.232 225.664 17.808 226.169 18.504C226.698 19.176 226.963 20.076 226.963 21.204C226.963 23.124 226.265 24.636 224.87 25.74C223.499 26.82 221.623 27.36 219.242 27.36Z" fill="white"/>
<defs>
<linearGradient id="paint0_linear_3_8619" x1="109.382" y1="-6" x2="117.381" y2="36.0452" gradientUnits="userSpaceOnUse">
<stop offset="0.0151515" stop-color="#33F8FF"/>
<stop offset="0.451335" stop-color="#12A2A8"/>
</linearGradient>
</defs>
</svg>
