<svg width="58" height="47" viewBox="0 0 58 47" fill="none" xmlns="http://www.w3.org/2000/svg">
<path d="M58.0073 5.99125C58.0073 17.9585 58.0073 29.9258 58.0073 41.893C57.9796 41.9617 57.938 42.0249 57.9268 42.0964C57.4523 44.9549 54.8243 46.9613 51.7107 46.9531C36.5726 46.9036 21.4345 46.9311 6.29359 46.9229C5.7136 46.9229 5.11695 46.8926 4.55084 46.769C1.85345 46.167 0.0135685 43.8307 0.0107934 41.0217C0.0052432 31.5804 0.00801769 22.1391 0.00801769 12.6977C0.00801769 10.6968 0.00801829 8.69584 0.0107934 6.69763C0.0135685 5.44154 0.407631 4.30638 1.17078 3.3114C2.42789 1.67875 4.11515 0.950384 6.17704 0.953133C21.3901 0.961378 36.6059 0.958629 51.8189 0.958629C52.0076 0.958629 52.1963 0.958629 52.385 0.966874C54.1361 1.06582 55.568 1.78595 56.6947 3.12175C57.4051 3.96006 57.7603 4.94955 58.0073 5.99125ZM46.4269 15.9053C46.4269 24.3956 46.4269 32.7568 46.4269 41.1344C48.3916 41.1344 50.287 41.1344 52.1907 41.1344C52.1907 29.6536 52.1907 18.2169 52.1907 6.70038C51.2666 6.70038 50.3647 6.72237 49.4656 6.69214C48.9716 6.67564 48.5609 6.79933 48.1419 7.05769C41.9534 10.8562 35.7539 14.6382 29.5682 18.4395C29.1659 18.6869 28.8911 18.7144 28.4693 18.4532C22.4612 14.7564 16.431 11.0953 10.4312 7.38477C9.62369 6.88453 8.83834 6.61243 7.89481 6.68938C7.20937 6.74436 6.5156 6.70038 5.83015 6.70038C5.83015 18.2361 5.83015 29.6701 5.83015 41.1399C7.75606 41.1399 9.65144 41.1399 11.6134 41.1399C11.6134 32.7403 11.6134 24.3764 11.6134 15.9081C11.8798 16.073 12.0519 16.1774 12.2212 16.2846C17.6243 19.6736 23.0301 23.0543 28.4221 26.4571C28.8439 26.7237 29.1298 26.7539 29.571 26.4735C34.9436 23.0763 40.3356 19.7038 45.7192 16.3258C45.9107 16.2077 46.105 16.0977 46.4269 15.9053Z" fill="white"/>
</svg>
