<svg width="59" height="59" viewBox="0 0 59 59" fill="none" xmlns="http://www.w3.org/2000/svg">
<path d="M41.9326 0.703125H17.4152C8.1712 0.703125 0.673828 8.20051 0.673828 17.4445V41.9619C0.673828 51.2059 8.1712 58.7033 17.4152 58.7033H41.9326C51.1766 58.7033 58.674 51.2059 58.674 41.9619V17.4445C58.674 8.20051 51.1766 0.703125 41.9326 0.703125ZM53.332 42.3893C53.332 48.5303 48.3523 53.5006 42.2206 53.5006H17.1272C10.9862 53.5006 6.01583 48.521 6.01583 42.3893V17.3051C6.01583 11.1642 10.9955 6.19376 17.1272 6.19376H42.2206C48.3616 6.19376 53.332 11.1642 53.332 17.3051V42.3893Z" fill="white"/>
<path d="M29.6691 14.7964C21.3542 14.7964 14.6187 21.532 14.6187 29.8469C14.6187 38.1618 21.3542 44.8974 29.6691 44.8974C37.9841 44.8974 44.7196 38.1618 44.7196 29.8469C44.7196 21.532 37.9841 14.7964 29.6691 14.7964ZM29.6691 39.6018C24.2807 39.6018 19.9142 35.2353 19.9142 29.8469C19.9142 24.4584 24.2807 20.0919 29.6691 20.0919C35.0576 20.0919 39.4241 24.4584 39.4241 29.8469C39.4241 35.2353 35.0576 39.6018 29.6691 39.6018Z" fill="white"/>
<path d="M45.2215 10.7183C43.2798 10.7183 41.719 12.2884 41.719 14.2208C41.719 16.1532 43.2891 17.7233 45.2215 17.7233C47.1539 17.7233 48.724 16.1532 48.724 14.2208C48.724 12.2884 47.1539 10.7183 45.2215 10.7183Z" fill="white"/>
</svg>
