<svg width="51" height="58" viewBox="0 0 51 58" fill="none" xmlns="http://www.w3.org/2000/svg">
<path d="M17.9741 57.4531C16.7105 57.2674 15.4295 57.1658 14.1891 56.8814C7.16691 55.2767 1.68651 49.171 0.81127 42.0351C-0.359582 32.5167 6.083 23.927 15.5744 22.3686C17.4119 22.0668 19.2609 22.0233 21.1302 22.3541C21.1302 25.4766 21.1302 28.5701 21.1302 31.7216C20.6375 31.6287 20.1738 31.5242 19.7043 31.4575C15.131 30.7901 10.7751 33.9938 10.1752 38.4657C9.5289 43.2655 12.7285 47.4849 17.4321 48.1205C22.1648 48.7589 26.9844 45.0792 26.941 39.493C26.8888 32.7315 26.9439 25.9699 26.9468 19.2084C26.9497 13.2072 26.9468 7.20885 26.9468 1.20763C26.9468 0.969671 26.9468 0.731712 26.9468 0.453125C30.0536 0.453125 33.1053 0.453125 36.1542 0.453125C36.2904 1.41077 36.3715 2.37131 36.5657 3.30864C37.8699 9.6668 43.4981 14.4318 49.9725 14.6523C50.5377 14.6727 50.6797 14.8207 50.6739 15.3778C50.6449 18.0157 50.6594 20.6536 50.6594 23.2914C50.6594 23.4888 50.6594 23.689 50.6594 23.927C48.0018 23.956 45.5007 23.5178 43.0576 22.6936C40.6202 21.8724 38.3858 20.6652 36.2382 19.0517C36.2382 19.3651 36.2382 19.5624 36.2382 19.7569C36.2585 26.3327 36.2759 32.9085 36.2962 39.4843C36.3078 43.0682 35.4267 46.4054 33.4067 49.377C30.1144 54.2233 25.5267 56.8901 19.6811 57.3603C19.4811 57.3777 19.2812 57.4212 19.0841 57.4531C18.716 57.4531 18.3451 57.4531 17.9741 57.4531Z" fill="white"/>
</svg>
