<svg width="58" height="59" viewBox="0 0 58 59" fill="none" xmlns="http://www.w3.org/2000/svg">
<path d="M56.1285 0.705945C52.9608 4.31222 49.7961 7.92415 46.6256 11.5276C42.7267 15.9648 38.8221 20.3963 34.9204 24.8307C34.8077 24.9579 34.6978 25.0907 34.5504 25.2659C42.3539 36.3702 50.1574 47.4801 58.0071 58.6494C57.7961 58.6664 57.6545 58.689 57.5129 58.6918C52.0909 58.6947 46.666 58.689 41.2441 58.7031C40.8626 58.7031 40.6631 58.5703 40.4579 58.2764C35.429 51.1034 30.3915 43.9389 25.3539 36.7744C25.2267 36.5907 25.0909 36.4126 24.929 36.1893C23.4551 37.8653 22.0186 39.4932 20.5851 41.1211C15.5389 46.8584 10.4955 52.5956 5.43483 58.3216C5.26431 58.5166 4.93194 58.6692 4.66893 58.6749C3.16604 58.7088 1.66315 58.6918 0.00708008 58.6918C7.59957 50.0605 15.114 41.5196 22.6458 32.9561C22.536 32.7894 22.4377 32.6311 22.3308 32.4813C15.0447 22.1119 7.76142 11.7424 0.475291 1.37294C0.325002 1.15815 0.197834 0.926398 0.0591055 0.703125C5.81055 0.703125 11.5649 0.703125 17.3163 0.703125C17.3626 0.785086 17.4001 0.872698 17.4551 0.949006C22.3134 7.86763 27.1747 14.7834 32.0331 21.7021C32.1053 21.8038 32.1603 21.9197 32.2354 22.0525C38.562 14.8597 44.7932 7.78285 51.0215 0.703125C52.7296 0.705951 54.429 0.705945 56.1285 0.705945ZM50.9869 55.0573C50.8048 54.7916 50.6892 54.6192 50.5678 54.4525C47.4406 50.0775 44.3134 45.7053 41.1863 41.3303C32.5447 29.2425 23.9001 17.1603 15.273 5.06118C14.9464 4.60333 14.6111 4.44223 14.0504 4.45071C11.9088 4.48462 9.7672 4.46202 7.62558 4.46484C7.4435 4.46484 7.26431 4.48462 7.01864 4.49593C7.15159 4.69942 7.2383 4.84073 7.33656 4.97639C19.1805 21.5466 31.0273 38.114 42.8655 54.6899C43.0793 54.9866 43.299 55.0997 43.6689 55.0968C45.9059 55.0799 48.1458 55.0884 50.3828 55.0884C50.5533 55.0912 50.7181 55.0714 50.9869 55.0573Z" fill="white"/>
</svg>
