<svg width="94" height="58" viewBox="0 0 94 58" fill="none" xmlns="http://www.w3.org/2000/svg">
<g opacity="0.5" clip-path="url(#clip0_12_9208)">
<path d="M87.5569 7.12941C87.5569 7.19704 87.5569 7.28157 87.5395 7.3323C87.4524 7.99166 87.4524 8.65103 87.5046 9.32731C87.5395 9.49638 87.5743 9.66545 87.7138 9.80071C87.9403 10.0543 88.2888 10.0036 88.4283 9.69926C88.4981 9.5471 88.4981 9.39493 88.4631 9.24278C88.2888 8.60031 88.254 7.92404 88.2366 7.26466C88.2366 7.23085 88.2366 7.18012 88.2366 7.12941C88.4283 7.1125 88.6026 7.09559 88.7594 7.09559C88.8815 7.07869 88.9861 7.06178 89.0732 7.01105C89.3345 6.87581 89.3345 6.58839 89.0557 6.45313C88.9511 6.40241 88.8118 6.3855 88.6898 6.3855C88.254 6.40241 87.8184 6.40241 87.3826 6.40241C87.2258 6.40241 87.0689 6.41932 86.912 6.43622C86.8249 6.45313 86.7203 6.45313 86.6507 6.50386C86.5286 6.55457 86.459 6.6391 86.459 6.75745C86.4764 6.87581 86.5286 6.94343 86.6507 6.99416C86.7203 7.04488 86.8075 7.06178 86.8946 7.06178C87.1037 7.07869 87.3304 7.1125 87.5569 7.12941ZM92.3496 7.90713C92.3496 7.92404 92.367 7.94094 92.367 7.94094C92.4368 8.39743 92.5065 8.83701 92.5587 9.27659C92.5763 9.42874 92.5937 9.564 92.6982 9.68235C92.9247 9.96977 93.2734 9.93595 93.4301 9.63164C93.4999 9.47947 93.5173 9.32731 93.4825 9.15824C93.3779 8.65103 93.3256 8.14382 93.221 7.65352C93.1513 7.34919 93.0642 7.06178 92.9771 6.79127C92.9247 6.6222 92.8028 6.50384 92.5937 6.48695C92.3845 6.45313 92.2276 6.55457 92.1405 6.70674C92.0359 6.84198 91.9488 6.97724 91.879 7.12941C91.7571 7.39992 91.6525 7.67044 91.5131 7.92404C91.4956 7.99166 91.4782 8.04239 91.4434 8.0931C91.426 8.05929 91.4086 8.04239 91.4086 8.04239C91.1819 7.61971 90.9728 7.19704 90.7463 6.79127C90.7113 6.75745 90.6939 6.72364 90.6765 6.68983C90.572 6.53767 90.45 6.45313 90.2583 6.45313C90.084 6.47003 89.9445 6.57148 89.8575 6.72364C89.8225 6.79127 89.8225 6.84198 89.8051 6.90962C89.7354 7.45064 89.6482 7.99166 89.5786 8.53268C89.5437 8.83701 89.5263 9.14133 89.5263 9.44566C89.5089 9.51328 89.5263 9.59781 89.5611 9.66545C89.596 9.8007 89.7006 9.88524 89.8399 9.90214C90.0142 9.91906 90.1362 9.86833 90.1885 9.73307C90.2408 9.63164 90.2583 9.5471 90.2757 9.46257C90.3454 9.15824 90.3977 8.87082 90.45 8.58341C90.4848 8.41434 90.5022 8.27908 90.5546 8.0931C90.5894 8.16073 90.6242 8.21146 90.6591 8.26217C90.8159 8.46506 90.9728 8.66794 91.1645 8.83701C91.3562 8.97226 91.5131 8.95536 91.6699 8.80319C91.7048 8.76938 91.7223 8.75248 91.7571 8.71865C91.914 8.48196 92.1057 8.24527 92.2625 8.00856C92.2974 7.97475 92.3148 7.94094 92.3496 7.90713Z" fill="#F3F3F3"/>
<path d="M52.1929 7.4616C52.0718 7.78291 52.0486 8.0144 52.1046 8.2068C52.1664 8.46843 52.3267 8.55409 52.5443 8.48754C54.5914 7.99648 59.0802 9.39033 60.7421 9.77881C61.1341 9.86038 61.4529 9.36955 61.1855 8.92949C60.7952 8.50332 56.3083 6.67873 54.5963 6.57925C53.9252 6.54246 52.7255 6.37553 52.1929 7.4616Z" fill="#F3F3F3"/>
<path d="M69.7362 1.55523C69.9544 1.67738 70.0763 1.79391 70.1365 1.92411C70.2262 2.09489 70.1789 2.21305 70.0282 2.27335C68.6751 2.91401 66.8745 5.67219 66.1476 6.62345C65.9715 6.84228 65.565 6.71512 65.5037 6.35525C65.5163 5.94836 67.1124 2.95512 68.0032 2.13987C68.3533 1.82157 68.9316 1.19702 69.7362 1.55523Z" fill="#F3F3F3"/>
<path d="M58.9602 0.197458C59.2223 0.00582489 59.4946 -0.0613292 59.6337 0.0632084C61.6754 1.757 62.758 4.43928 63.4284 6.89484C63.4537 6.95205 63.4553 7.03415 63.4351 7.11979C63.4267 7.19299 63.3716 7.27031 63.284 7.33015C63.1905 7.3962 63.11 7.41632 63.0721 7.3594C62.1773 6.17874 57.0667 1.58501 58.9602 0.197458Z" fill="#F3F3F3"/>
<path d="M15.7268 29.5636C16.2161 29.2102 16.748 28.916 17.3109 28.6877C17.8999 28.5243 18.5277 28.5514 19.0993 28.7649C19.6709 28.9785 20.1554 29.3667 20.4793 29.871C20.7691 30.374 20.8824 30.9548 20.8024 31.5258C20.7225 32.0968 20.4534 32.6271 20.0357 33.0369C19.7119 33.3691 19.3443 33.6584 18.9427 33.8975C17.1526 35.0194 15.3465 36.0798 13.5406 37.2017C13.171 37.4824 12.779 37.7344 12.3682 37.9548C11.7434 38.257 11.0294 38.3379 10.3496 38.1836C9.6698 38.0294 9.06697 37.6493 8.64536 37.1095C8.33019 36.7273 8.06419 36.3093 7.85326 35.8646C6.14232 32.3761 4.36803 28.9028 2.72045 25.3527C1.96003 23.8159 1.3422 22.0485 0.740203 20.3427C0.479752 19.847 0.428892 19.2724 0.598452 18.7409C0.768013 18.2094 1.14462 17.7631 1.64815 17.4968C2.15169 17.2306 2.74243 17.1654 3.29474 17.3152C3.84706 17.4649 4.31737 17.8178 4.60564 18.2987C5.49173 19.441 6.27611 20.6544 6.95027 21.9257C8.6612 24.9993 10.2929 28.0729 11.9405 31.0543C12.0364 31.2191 12.1422 31.3781 12.2573 31.5307C13.4974 31.0249 14.6638 30.3636 15.7268 29.5636Z" fill="#F3F3F3"/>
<path d="M33.4168 28.4915C29.5039 32.9328 22.9452 31.8109 19.6501 26.094C17.3054 22.0367 16.8936 15.3361 21.9948 11.1099C23.0841 10.2251 24.3866 9.62234 25.7809 9.35789C27.4905 9.12013 29.2339 9.41271 30.7617 10.1938C32.2896 10.975 33.5238 12.2046 34.2882 13.7071C37.0763 18.625 36.6803 24.8952 33.4168 28.4915ZM31.8326 18.1332C31.4169 16.9247 30.5829 15.8929 29.4721 15.2132C28.8436 14.7786 28.0798 14.5672 27.3094 14.6148C26.539 14.6624 25.8091 14.966 25.2423 15.4744C22.977 17.4263 22.5016 22.0521 24.1492 24.8031C24.3592 25.2516 24.6676 25.6503 25.053 25.9711C25.4384 26.292 25.8915 26.5272 26.3804 26.6604C26.8693 26.7936 27.3823 26.8216 27.8835 26.7424C28.3848 26.663 28.862 26.4785 29.2821 26.2015C30.5101 25.2779 31.411 24.0061 31.8595 22.5629C32.3082 21.1197 32.2822 19.5767 31.7851 18.1486L31.8326 18.1332Z" fill="#F3F3F3"/>
<path d="M49.3854 20.0696C48.9849 20.1532 48.571 20.1582 48.1683 20.0842C47.7658 20.0103 47.3824 19.8591 47.0409 19.6393C46.7421 19.4735 46.4849 19.2456 46.2877 18.9718C46.0907 18.698 45.9587 18.3854 45.9011 18.0561C45.8435 17.7269 45.8619 17.3895 45.9548 17.068C46.0478 16.7465 46.2132 16.4489 46.4389 16.1968C46.8322 15.6901 47.3905 15.3273 48.0231 15.1671C49.6749 14.7021 51.3754 14.4185 53.0926 14.3219C53.4699 14.2793 53.8521 14.3103 54.2168 14.413C54.5816 14.5158 54.9215 14.6881 55.2167 14.9201C55.5117 15.152 55.7562 15.4388 55.9356 15.7636C56.1148 16.0884 56.2255 16.4447 56.2609 16.8116C56.756 18.6135 56.8102 20.5029 56.4193 22.3288C54.9936 28.2302 50.0825 30.2587 44.5695 28.3685C43.022 27.8631 41.6651 26.9214 40.6724 25.6637C39.3483 24.1491 38.4096 22.3541 37.9317 20.4231C37.5445 18.7036 37.5869 16.9193 38.0555 15.2189C38.524 13.5186 39.4049 11.9516 40.6248 10.6489C41.7826 9.23293 43.2852 8.11858 44.9973 7.40616C46.0792 6.82768 47.3452 6.6632 48.5459 6.94512C48.8183 7.01825 49.0655 7.16074 49.262 7.35783C49.4585 7.55492 49.5971 7.7994 49.6634 8.06595C49.7297 8.33249 49.7212 8.61138 49.6389 8.8737C49.5566 9.136 49.4035 9.37218 49.1955 9.55773C48.7998 9.90513 48.37 10.214 47.9122 10.4798C46.5038 11.3499 45.2782 12.4711 44.3002 13.784C43.6592 14.6335 43.2177 15.6091 43.007 16.6419C42.7961 17.6747 42.8212 18.7398 43.0804 19.7623C43.4397 21.1564 44.237 22.4078 45.3616 23.343C48.8468 26.4168 53.3777 23.4506 52.5856 19.2551C51.4292 19.5318 50.4152 19.8238 49.3854 20.0696Z" fill="#F3F3F3"/>
<path d="M70.6774 28.7373C65.5288 31.811 59.6673 28.7373 58.384 22.2827C57.4494 17.6722 59.2237 11.2175 65.4338 8.75858C66.7551 8.24666 68.1882 8.06693 69.6002 8.23605C71.2967 8.53732 72.853 9.34751 74.0495 10.5524C75.246 11.7573 76.0227 13.2961 76.2697 14.952C77.3153 20.4384 74.939 26.2938 70.6774 28.7373ZM72.4677 18.3944C72.4661 17.1178 72.0006 15.8824 71.1528 14.9059C70.6996 14.3019 70.0445 13.8691 69.2992 13.6813C68.5537 13.4936 67.7644 13.5624 67.0655 13.8762C64.2773 15.0442 62.3129 19.2858 63.0258 22.4057C63.0803 22.8952 63.2442 23.3674 63.5063 23.7891C63.7685 24.2108 64.1224 24.5718 64.5434 24.8471C64.9643 25.1222 65.4422 25.3049 65.9435 25.3823C66.4449 25.4595 66.9576 25.4297 67.4457 25.2949C68.9195 24.7954 70.1956 23.862 71.0958 22.6249C71.9962 21.3878 72.4758 19.9088 72.4677 18.3944Z" fill="#F3F3F3"/>
<path d="M81.4764 30.0283C81.3986 30.5908 81.0939 31.1003 80.6289 31.4447C80.1639 31.789 79.5769 31.9402 78.9971 31.8648C78.4173 31.7894 77.8921 31.4936 77.5372 31.0426C77.182 30.5916 77.0263 30.0222 77.104 29.4597C77.1818 28.8972 77.4867 28.3877 77.9515 28.0433C78.4165 27.6989 79.0035 27.5478 79.5833 27.6232C80.1631 27.6986 80.6883 27.9943 81.0434 28.4453C81.3984 28.8964 81.5542 29.4659 81.4764 30.0283ZM80.0981 9.29647C80.3994 8.85007 80.8414 8.51012 81.3583 8.32733C81.8749 8.14454 82.4388 8.12869 82.9656 8.28217C83.5011 8.41216 83.9742 8.71667 84.306 9.14472C84.6376 9.57279 84.8075 10.0984 84.7874 10.6335C84.7176 11.4919 84.5852 12.3444 84.3914 13.1846C83.8686 16.0278 83.3616 18.8709 82.8072 21.6833C82.5537 22.8052 82.221 23.881 81.8566 25.0182C81.7299 25.3737 81.5181 25.695 81.2388 25.9557C81.0652 26.1518 80.8434 26.3022 80.5939 26.3931C80.3444 26.484 80.0754 26.5124 79.8117 26.4756C79.5479 26.4388 79.2979 26.3381 79.0849 26.1828C78.872 26.0274 78.7028 25.8224 78.5932 25.5869C78.4048 25.1643 78.3025 24.7101 78.2922 24.2498C78.2922 22.3441 78.2922 20.4232 78.4189 18.502C78.6343 15.7605 79.0578 13.038 79.6863 10.3569C79.7603 9.99768 79.8996 9.65417 80.0981 9.34258V9.29647Z" fill="#F3F3F3"/>
<path fill-rule="evenodd" clip-rule="evenodd" d="M9.03361 42.378C8.84656 42.7831 8.79527 43.2347 8.88667 43.6693C8.94748 44.2422 9.08104 44.8057 9.28431 45.347C9.5381 46.0097 9.82208 46.6651 10.1722 47.4729C10.2528 47.6588 10.3369 47.8528 10.425 48.057C10.8972 49.1514 11.4897 50.5499 12.28 52.574C12.5037 53.149 12.7023 53.7287 12.9023 54.3124C12.9831 54.5483 13.0642 54.7849 13.1472 55.022C13.4448 55.8651 13.9568 56.6225 14.6354 57.2228C14.9236 57.5528 15.3058 57.7932 15.7344 57.9134C16.1713 58.036 16.6361 58.0283 17.0684 57.8912C17.5007 57.7539 17.8804 57.4937 18.1582 57.1443C18.4306 56.8017 18.5925 56.3888 18.624 55.9575C18.8007 55.1173 18.7404 54.2461 18.4492 53.4361C17.987 52.0912 17.4605 50.7442 16.8533 49.4269L16.8505 49.4211C15.8517 47.3599 14.8364 45.3131 13.7731 43.2654L13.7651 43.251C13.4538 42.7176 13.0493 42.2407 12.5697 41.8418C12.2583 41.4857 11.8288 41.2456 11.3545 41.1628C10.8701 41.0783 10.3705 41.1634 9.94492 41.4032C9.54231 41.6263 9.22316 41.9675 9.03361 42.378Z" fill="#F3F3F3"/>
<path fill-rule="evenodd" clip-rule="evenodd" d="M24.289 37.3026C22.7228 36.9092 21.0872 36.8518 19.4961 37.1347C18.2638 37.2524 17.0517 37.5282 16.2101 38.0744C15.782 38.3524 15.4359 38.7094 15.2434 39.1631C15.0498 39.6193 15.0251 40.1411 15.1837 40.7224C15.4734 41.7872 15.8495 42.8225 16.2243 43.8545L16.285 44.0217L16.2864 44.0254C17.4149 47.0234 18.5542 50.0114 19.7038 52.989C19.8378 53.4583 20.0274 53.9109 20.2687 54.3379L20.2732 54.3458C20.5919 54.8763 21.0007 55.3507 21.4824 55.7491C21.7232 55.9682 22.0211 56.1198 22.3441 56.1876C22.6702 56.2559 23.0094 56.2361 23.3247 56.1301C23.6401 56.0243 23.9194 55.8364 24.1322 55.587C24.3416 55.3417 24.4787 55.0462 24.529 54.7316C24.7368 53.8772 24.6703 52.9815 24.3381 52.1647C24.2345 51.8899 24.1532 51.609 24.0675 51.3133C24.0389 51.2147 24.01 51.1144 23.9794 51.0123C26.6109 50.0144 29.4109 48.6726 30.3955 45.5512C30.781 44.4725 30.8132 43.3045 30.4874 42.2072C30.1614 41.1088 29.4924 40.1352 28.5728 39.4204C27.3212 38.4199 25.8591 37.697 24.289 37.3026ZM19.9479 41.1313C19.9997 41.1168 20.0519 41.1034 20.1042 41.0908C21.8174 40.8296 23.5702 41.1777 25.0399 42.0709C25.6875 42.5079 25.9529 42.9934 25.9984 43.4605C26.0455 43.9415 25.8652 44.4627 25.503 44.9638C24.8187 45.9102 23.5698 46.6678 22.4417 46.809C21.6193 44.9717 20.7842 43.0601 19.9479 41.1313Z" fill="#F3F3F3"/>
<path d="M34.73 33.9396C36.5951 33.104 38.9053 32.9597 40.7131 33.5472C41.1684 33.6759 41.5634 33.9541 41.8306 34.3344C42.096 34.7123 42.2185 35.1678 42.1776 35.6231C42.175 35.9186 42.1002 36.2094 41.9595 36.4717C41.8162 36.7388 41.6088 36.9684 41.3548 37.1414C41.1008 37.3142 40.8076 37.4253 40.5 37.465C40.1923 37.5048 39.8794 37.4721 39.5876 37.3697L39.5654 37.3619L39.5445 37.3512C39.3952 37.2754 39.2366 37.2183 39.0725 37.1812L39.0621 37.1789C37.7904 36.8512 36.5908 37.3942 36.1527 38.0613C35.9437 38.3794 35.9178 38.7005 36.0918 38.9926C36.2782 39.3054 36.7354 39.6564 37.6605 39.9066C37.9149 39.9744 38.1757 40.0398 38.4402 40.1062C39.1717 40.29 39.9319 40.4808 40.667 40.7454L40.6698 40.7464C44.0611 41.9982 45.3239 44.5907 44.8916 47.029C44.464 49.4404 42.3881 51.6349 39.2663 52.1525C38.1304 52.3968 36.9482 52.3492 35.8369 52.0145C34.7227 51.6788 33.7185 51.0662 32.9238 50.2374L32.9031 50.2157C32.6523 49.9035 32.4836 49.5366 32.4088 49.1473C32.3399 48.7961 32.3762 48.433 32.513 48.101C32.6491 47.7709 32.8792 47.4853 33.1761 47.2771C33.4898 47.0412 33.8679 46.8996 34.2637 46.8701C34.6582 46.8407 35.0529 46.9238 35.3992 47.1092C35.7452 47.2713 36.067 47.4781 36.3558 47.7241L36.3613 47.7286C36.8722 48.1819 37.4904 48.3 38.0832 48.1906C38.6847 48.0796 39.2502 47.7344 39.614 47.2763C39.9754 46.8212 40.1205 46.2804 39.9483 45.7555C39.775 45.2268 39.2541 44.6344 38.1095 44.1392C37.8103 44.0159 37.5001 43.9165 37.1774 43.8198C37.0904 43.7937 37.0019 43.7677 36.9123 43.7414C36.6737 43.6711 36.4282 43.5987 36.1875 43.519C36.0217 43.4641 35.8572 43.4122 35.6943 43.3607C35.2491 43.22 34.8151 43.0829 34.3974 42.899C33.4882 42.5988 32.7028 42.0222 32.1579 41.2546C31.6108 40.484 31.3355 39.5625 31.373 38.6276C31.3759 36.3494 32.855 34.7798 34.73 33.9396Z" fill="#F3F3F3"/>
<path d="M58.3752 33.697C58.0135 33.5256 57.6136 33.4443 57.2116 33.4602C56.8094 33.4763 56.4178 33.5891 56.0719 33.7888C55.7282 33.9871 55.4405 34.2647 55.2343 34.597C55.0452 34.8769 54.9144 35.1898 54.8491 35.5184C54.7839 35.8468 54.7855 36.1842 54.8536 36.5118C54.921 36.9328 54.9957 37.3423 55.0694 37.746C55.1915 38.4142 55.3103 39.0674 55.3887 39.7333L55.3916 39.7502C55.57 40.7946 55.6634 41.8508 55.6718 42.9093L55.6726 42.9244C55.7335 44.0675 55.3321 45.1883 54.5542 46.0491L54.5418 46.0644C54.2887 46.3791 53.9503 46.6192 53.5644 46.758C53.1786 46.8968 52.7606 46.9287 52.3571 46.8502C51.9536 46.7716 51.5807 46.5857 51.2799 46.3133C50.9791 46.0408 50.7622 45.6915 50.6539 45.3065C50.4227 44.4948 50.2889 43.66 50.2549 42.8188L50.6498 36.7205C50.6556 36.6409 50.6623 36.5591 50.669 36.4766C50.684 36.2914 50.6995 36.1028 50.7058 35.9268C50.7151 35.6679 50.7072 35.4016 50.645 35.1496C50.5814 34.892 50.4603 34.647 50.2456 34.4383C50.0331 34.2317 49.7461 34.0794 49.385 33.9756C48.732 33.7923 48.1798 33.7981 47.7197 33.9875C47.2594 34.1769 46.944 34.5286 46.7208 34.9349C46.4993 35.3377 46.357 35.8146 46.2494 36.2923C46.1696 36.6468 46.1054 37.0189 46.0444 37.3731C46.0233 37.4952 46.0027 37.615 45.9818 37.7314L45.9813 37.7348C45.655 39.6773 45.5579 41.6496 45.6918 43.6134C45.7168 44.6746 45.9449 45.7222 46.3647 46.7025C46.8384 47.9675 47.6962 49.0634 48.8251 49.8457C49.9564 50.6297 51.3063 51.0616 52.6963 51.0844C54.0863 51.1072 55.4506 50.7198 56.6085 49.9736C57.7647 49.2284 58.6607 48.1604 59.178 46.9109C59.9017 45.3192 60.2415 43.5882 60.1714 41.8498C60.1289 40.5806 60.0577 39.3017 59.9868 38.0293C59.952 37.4051 59.9174 36.7823 59.8863 36.1633C59.8706 35.5425 59.6596 34.9413 59.2815 34.4403C59.0475 34.1235 58.7361 33.8681 58.3752 33.697Z" fill="#F3F3F3"/>
<path d="M71.1747 43.2592C71.1381 43.3044 71.0994 43.3512 71.059 43.3998C70.7649 41.7537 70.4922 40.108 70.2192 38.4599C70.1213 37.8686 70.0229 37.2747 69.9239 36.6826L69.9127 36.6166L69.8766 36.5595C69.8084 36.4521 69.8017 36.3467 69.8017 36.1221V36.0962L69.7975 36.0705C69.7237 35.6066 69.5074 35.1749 69.177 34.8319C68.8475 34.4898 68.4195 34.2518 67.9488 34.1484C67.4789 34.036 66.9851 34.0608 66.5295 34.2197C66.0751 34.3783 65.6791 34.6633 65.3908 35.039C65.1511 35.3273 64.9546 35.6471 64.8074 35.9887C64.4733 36.7248 64.1362 37.4627 63.7982 38.2026L63.7924 38.2154C62.9486 40.0626 62.0991 41.9221 61.2744 43.7963L61.2718 43.8024C60.7655 45.0176 60.3475 46.2981 59.931 47.5746C59.8479 47.8294 59.7647 48.0841 59.6809 48.3381C59.5305 48.7409 59.4647 49.1688 59.4873 49.5966C59.4599 49.9795 59.5544 50.3615 59.7582 50.6909C59.966 51.0271 60.2773 51.2915 60.6481 51.4472C61.0411 51.6143 61.4804 51.6498 61.8967 51.548C62.312 51.4464 62.6808 51.2139 62.945 50.8869C63.2825 50.4842 63.5728 50.045 63.8095 49.5797C64.5082 48.1932 65.176 46.7899 65.8407 45.3926C66.0979 44.8522 66.3478 44.3681 66.6321 43.841C66.6516 43.906 66.6715 43.9694 66.6921 44.0329C66.9901 45.3056 67.4931 46.5247 68.1825 47.6454C68.313 47.8828 68.4947 48.0903 68.7153 48.2536C68.9385 48.4189 69.1961 48.5349 69.4702 48.5938C69.7443 48.6528 70.0283 48.653 70.3025 48.5946C70.5763 48.5364 70.8348 48.4202 71.0581 48.2557L71.5001 47.9347L74.9309 45.1314L74.728 46.3856C74.4495 48.1097 74.1732 49.8194 73.8796 51.5294C73.6875 52.2874 73.6877 53.0791 73.8804 53.8368C73.9638 54.2632 74.1764 54.6558 74.491 54.9645C74.8082 55.2757 75.2145 55.4871 75.6572 55.5715C76.0999 55.6557 76.5585 55.6091 76.9734 55.4373C77.3824 55.2682 77.7302 54.9853 77.9733 54.6248C78.539 53.9439 78.8911 53.1197 78.9878 52.2501C79.1334 51.0221 79.2979 49.7773 79.4625 48.5329C79.6521 47.0986 79.8417 45.6647 80.0018 44.2583L80.0023 44.254C80.1564 42.7145 80.2309 41.1687 80.2258 39.6219C80.2595 39.1331 80.1341 38.6462 79.8668 38.23C79.5985 37.8124 79.2013 37.4878 78.7318 37.302C78.2434 37.0866 77.6967 37.029 77.172 37.1379C76.6508 37.246 76.1791 37.5125 75.8251 37.8986C75.1923 38.4664 74.5987 39.0739 74.048 39.7173L74.0443 39.7217C73.4431 40.4484 72.8461 41.1893 72.2529 41.9256C71.8922 42.3731 71.5325 42.8195 71.1747 43.2592Z" fill="#F3F3F3"/>
</g>
<defs>
<clipPath id="clip0_12_9208">
<rect width="93" height="58" fill="white" transform="translate(0.5)"/>
</clipPath>
</defs>
</svg>
