<svg width="215" height="80" viewBox="0 0 215 80" fill="none" xmlns="http://www.w3.org/2000/svg">
<g opacity="0.5" clip-path="url(#clip0_12_9225)">
<path fill-rule="evenodd" clip-rule="evenodd" d="M30.5148 22.5V60H20.5V22.5H30.5148Z" fill="#F3F3F3"/>
<path fill-rule="evenodd" clip-rule="evenodd" d="M35.5222 22.5H56.8037C63.7175 22.5 69.3222 28.0964 69.3222 35C69.3222 41.9036 63.7175 47.5 56.8037 47.5H45.537V60H35.5222V22.5ZM45.537 37.5H56.8037C58.1865 37.5 59.3074 36.3807 59.3074 35C59.3074 33.6193 58.1865 32.5 56.8037 32.5H45.537V37.5Z" fill="#F3F3F3"/>
<path fill-rule="evenodd" clip-rule="evenodd" d="M106.878 22.5V41.875C106.878 46.3623 110.521 50 115.015 50C119.509 50 123.152 46.3623 123.152 41.875V22.5H133.167V41.875C133.167 51.8852 125.04 60 115.015 60C104.99 60 96.863 51.8852 96.863 41.875V22.5H106.878Z" fill="#F3F3F3"/>
<path fill-rule="evenodd" clip-rule="evenodd" d="M73.0778 40C73.0778 30.335 80.9244 22.5 90.6037 22.5H93.1074V32.5H90.6037C86.4554 32.5 83.0926 35.8579 83.0926 40V41.25C83.0926 51.6053 74.6855 60 64.3148 60H63.063V50H64.3148C69.1545 50 73.0778 46.0825 73.0778 41.25V40Z" fill="#F3F3F3"/>
<path d="M189.5 23.75C189.5 25.8211 187.819 27.5 185.744 27.5C183.67 27.5 181.989 25.8211 181.989 23.75C181.989 21.6789 183.67 20 185.744 20C187.819 20 189.5 21.6789 189.5 23.75Z" fill="#F3F3F3"/>
<path d="M143.92 60L148.699 40.0181L152.252 52.0393C154.37 59.2091 164.541 59.2091 166.66 52.0393L170.212 40.0181L174.991 60H185.287L177.773 28.5795C175.986 21.1074 165.441 20.8308 163.263 28.1989L159.456 41.0833L155.648 28.1989C153.471 20.8308 142.925 21.1074 141.138 28.5795L133.624 60H143.92Z" fill="#F3F3F3"/>
</g>
<path d="M194.5 40C194.5 40.663 194.237 41.2989 193.768 41.7678C193.299 42.2366 192.663 42.5 192 42.5C191.337 42.5 190.701 42.2366 190.232 41.7678C189.763 41.2989 189.5 40.663 189.5 40C189.5 39.337 189.763 38.7011 190.232 38.2322C190.701 37.7634 191.337 37.5 192 37.5C192.663 37.5 193.299 37.7634 193.768 38.2322C194.237 38.7011 194.5 39.337 194.5 40Z" fill="#F3F3F3"/>
<defs>
<clipPath id="clip0_12_9225">
<rect width="169" height="40" fill="white" transform="translate(20.5 20)"/>
</clipPath>
</defs>
</svg>
